<?xml version="1.0" encoding="utf-8"?>
<!-- Generator: Adobe Illustrator 23.0.1, SVG Export Plug-In . SVG Version: 6.00 Build 0)  -->
<svg version="1.1" id="Camada_1" xmlns="http://www.w3.org/2000/svg" xmlns:xlink="http://www.w3.org/1999/xlink" x="0px" y="0px"
	 viewBox="0 0 285.3 115.7" style="enable-background:new 0 0 285.3 115.7;" xml:space="preserve">
<style type="text/css">
	.st0{fill:#493E00;}
	.st1{fill:none;stroke:#2400F9;stroke-miterlimit:10;}
	.st2{fill:#FCEC92;}
	.st3{fill:#FFE000;}
	.st4{fill:#00B23B;}
	.st5{fill:#3FA000;}
	.st6{fill:#00FF8B;}
	.st7{fill:#FFA300;}
	.st8{fill:#0400AA;}
	.st9{fill:#009EFF;}
	.st10{fill:#2400F9;}
	.st11{fill:#FF0098;}
	.st12{fill:#FF0000;}
	.st13{fill:#564A02;}
	.st14{fill:#006B08;}
	.st15{fill:none;stroke:#94E8FF;stroke-width:0.5;stroke-linecap:round;stroke-linejoin:round;stroke-miterlimit:10;}
	.st16{fill:#603900;}
	.st17{display:none;}
	.st18{display:inline;fill:none;stroke:#B1DDE8;stroke-width:0.2007;stroke-miterlimit:10;}
	.st19{fill:#014F49;}
	.st20{fill:#4C3702;}
	.st21{fill:#FFFFFF;}
	.st22{fill:#393A3A;}
	.st23{fill:none;stroke:#3669B0;stroke-width:0.5113;stroke-linecap:round;stroke-linejoin:round;stroke-miterlimit:10;}
	.st24{fill:#3669B0;}
</style>
<path class="st14" d="M52.3,52.7c3,1.8,5.4,4.2,7.2,7.2c1.8,3.1,2.6,6.5,2.6,10.2s-0.9,7.1-2.6,10.2c-1.7,3-4,5.4-7,7.2
	c-3,1.8-6.3,2.6-9.9,2.6c-3.1,0-6-0.7-8.6-2c-2.6-1.3-4.7-3.1-6.4-5.4v21.1c0,0.8-0.3,1.5-0.8,2c-0.5,0.5-1.2,0.8-2,0.8
	c-0.8,0-1.5-0.3-2-0.8s-0.8-1.2-0.8-2V87.8c0-0.1-0.1-0.4-0.1-0.6V70.2c0-3.7,0.9-7.2,2.6-10.2c1.8-3.1,4.2-5.5,7.2-7.2
	c3-1.8,6.4-2.6,10.2-2.6S49.2,51,52.3,52.7z M49.5,83.2c2.2-1.3,4-3.1,5.3-5.4c1.3-2.3,1.9-4.8,1.9-7.7c0-2.8-0.6-5.4-1.9-7.7
	c-1.3-2.3-3-4.1-5.3-5.4c-2.2-1.3-4.7-2-7.5-2c-2.7,0-5.2,0.7-7.4,2c-2.2,1.3-3.9,3.1-5.2,5.4c-1.3,2.3-1.9,4.8-1.9,7.7
	c0,0.8,0,1.4,0.1,1.8c0,0.1,0.1,0.2,0.1,0.4c0.5,3.7,2.1,6.8,4.7,9.2c2.7,2.4,5.9,3.6,9.7,3.6C44.8,85.2,47.3,84.5,49.5,83.2z"/>
<path class="st14" d="M110.1,52.7c3,1.7,5.4,4.1,7.2,7.2c1.8,3.1,2.6,6.5,2.6,10.3c0,3.8-0.9,7.2-2.6,10.3c-1.7,3-4.1,5.4-7.2,7.2
	c-3,1.7-6.5,2.6-10.3,2.6c-3.8,0-7.2-0.9-10.3-2.6c-3-1.7-5.4-4.1-7.2-7.2c-1.7-3-2.6-6.5-2.6-10.3c0-3.8,0.9-7.2,2.6-10.3
	c1.7-3.1,4.1-5.5,7.2-7.2c3-1.7,6.5-2.6,10.3-2.6C103.7,50.1,107.1,51,110.1,52.7z M92.4,57.1c-2.2,1.3-4,3.1-5.3,5.4
	c-1.3,2.3-1.9,4.9-1.9,7.7c0,2.8,0.6,5.4,1.9,7.7c1.3,2.3,3,4.1,5.3,5.4s4.7,1.9,7.5,1.9c2.8,0,5.3-0.6,7.5-1.9
	c2.2-1.3,3.9-3.1,5.2-5.4c1.2-2.3,1.9-4.8,1.9-7.7c0-2.9-0.6-5.5-1.9-7.7c-1.2-2.3-3-4.1-5.2-5.4c-2.2-1.3-4.7-1.9-7.5-1.9
	C97.1,55.2,94.7,55.8,92.4,57.1z M107.3,30.9c0.8,0,1.5,0.3,2,0.8c0.5,0.6,0.8,1.2,0.8,2.1c0,0.8-0.3,1.4-0.8,1.9l-8.1,8.1
	c-0.5,0.5-1.1,0.7-1.9,0.7c-0.8,0-1.5-0.3-2-0.8c-0.5-0.6-0.8-1.2-0.8-2c0-0.8,0.2-1.4,0.6-1.9l8.1-8.1
	C105.9,31.2,106.5,30.9,107.3,30.9z"/>
<path class="st14" d="M202.5,52.6c2.7,1.7,4.9,3.9,6.4,6.9c1.5,2.9,2.3,6.3,2.3,10c0,0.8-0.2,1.4-0.7,1.8c-0.5,0.5-1.1,0.7-1.9,0.7
	h-29.1c0.4,3.9,1.9,7.1,4.6,9.6c2.7,2.4,6,3.7,10.1,3.7c1.7,0,3.5-0.3,5.2-0.9c1.8-0.6,3.2-1.4,4.2-2.3c0.6-0.5,1.3-0.7,1.9-0.7
	c0.5,0,1.1,0.2,1.6,0.6c0.6,0.6,0.9,1.2,0.9,1.9c0,0.6-0.3,1.2-0.8,1.7c-1.6,1.3-3.6,2.5-6,3.3c-2.4,0.9-4.8,1.3-7.1,1.3
	c-3.8,0-7.3-0.9-10.3-2.6c-3-1.7-5.4-4.1-7.1-7.1c-1.7-3-2.6-6.5-2.6-10.3c0-3.9,0.8-7.4,2.4-10.4c1.6-3,3.8-5.4,6.7-7.1
	c2.9-1.7,6.1-2.6,9.8-2.6C196.6,50.1,199.8,50.9,202.5,52.6z M184,58.5c-2.4,2.3-3.9,5.2-4.4,8.9h26.4c-0.4-3.7-1.7-6.7-4-8.9
	c-2.3-2.3-5.3-3.4-8.9-3.4C189.4,55.1,186.4,56.2,184,58.5z"/>
<path class="st14" d="M256.3,52.2c2.7,1.4,4.8,3.5,6.4,6.3c1.5,2.8,2.3,6.1,2.3,9.9v18.7c0,0.8-0.3,1.4-0.8,1.9
	c-0.5,0.5-1.2,0.8-1.9,0.8c-0.8,0-1.5-0.3-2-0.8c-0.5-0.5-0.8-1.2-0.8-1.9V68.4c0-4.3-1.2-7.5-3.6-9.8c-2.4-2.2-5.5-3.3-9.3-3.3
	c-2.4,0-4.5,0.5-6.4,1.4c-1.9,0.9-3.4,2.2-4.5,3.8c-1.1,1.6-1.7,3.4-1.7,5.4v21.3c0,0.8-0.3,1.5-0.8,2s-1.2,0.8-2,0.8
	c-0.8,0-1.5-0.3-2-0.8c-0.5-0.5-0.8-1.2-0.8-2V53.3c0-0.8,0.3-1.5,0.8-2c0.5-0.5,1.2-0.8,2-0.8c0.8,0,1.5,0.3,2,0.8
	c0.5,0.5,0.8,1.2,0.8,2v2.4c1.6-1.8,3.5-3.2,5.8-4.2c2.3-1,4.7-1.5,7.3-1.5C250.5,50,253.6,50.8,256.3,52.2z"/>
<g>
	<path class="st15" d="M146.3,35.1l1,5c0.1,0.5,0.6,0.9,1.2,0.8l0.1,0c0.6-0.1,1-0.7,0.9-1.3l-1.2-5c-0.1-0.5-0.6-0.9-1.1-0.8l0,0
		C146.6,33.9,146.2,34.5,146.3,35.1z"/>
	<path class="st15" d="M136.7,16.8c0,0,1.7,5.3,7.9,4.3l2.6,12.7"/>
	<path class="st15" d="M138.2,16c0,0,3.5,6.4,6.4,5.2c6.3-2.6,5.5-6.5,5.5-6.5"/>
	<path class="st15" d="M148.1,15c0,0,0.6,4.5-3.4,6.2"/>
	<path class="st15" d="M144.9,21c-2.6-0.8-4.6-5-4.6-5"/>
	<path class="st15" d="M144.7,15l0,5.6c1.5-1.5,1.4-5.5,1.4-5.5"/>
	<path class="st15" d="M141.9,15.5c0,0,1.8,4.2,2.8,5.1"/>
</g>
<g>
	<path class="st15" d="M143.1,36l3.7,3.6c0.4,0.4,0.4,1,0.1,1.4l-0.1,0.1c-0.4,0.5-1.1,0.5-1.6,0.1l-3.6-3.7c-0.4-0.4-0.4-1-0.1-1.4
		l0,0C141.9,35.6,142.7,35.5,143.1,36z"/>
	<path class="st15" d="M132.9,18c0,0,3.6,4.3-0.6,9l9.3,9.1"/>
	<path class="st15" d="M131.4,18.8c0,0,3.5,6.4,0.9,8.2c-5.6,3.9-8.4,1.1-8.4,1.1"/>
	<path class="st15" d="M125.2,26.6c0,0,3.5,2.9,7,0.4"/>
	<path class="st15" d="M132,27.2c0.8-2.6-1.7-6.5-1.7-6.5"/>
	<path class="st15" d="M127.1,23.7l4.7,3c-2,0.4-5.4-1.8-5.4-1.8"/>
	<path class="st15" d="M129,21.7c0,0,2.6,3.8,2.8,5"/>
</g>
<g>
	<path class="st15" d="M144.9,36.4l1.6,3.2c0.2,0.3,0,0.8-0.3,1l-0.1,0c-0.4,0.2-0.9,0.1-1-0.3l-1.5-3.2c-0.2-0.3,0-0.7,0.3-0.9l0,0
		C144.3,35.9,144.8,36,144.9,36.4z"/>
	<path class="st15" d="M142.5,22.2c0,0,1.3,3.7-2.6,5.8l4,8.1"/>
	<path class="st15" d="M141.3,22.4c0,0,0.8,5-1.3,5.6c-4.6,1.2-5.8-1.2-5.8-1.2"/>
	<path class="st15" d="M135.4,26c0,0,1.6,2.7,4.5,1.9"/>
	<path class="st15" d="M139.7,28c1.1-1.5,0.4-4.7,0.4-4.7"/>
	<path class="st15" d="M137.3,24.6l2.4,3.1c-1.4-0.2-3.1-2.5-3.1-2.5"/>
	<path class="st15" d="M139,23.7c0,0,0.8,3.1,0.6,4"/>
</g>
<g>
	<path class="st15" d="M141.6,38.2l5-1c0.5-0.1,0.9-0.6,0.8-1.2l0-0.1c-0.1-0.6-0.7-1-1.3-0.9l-5,1.2c-0.5,0.1-0.9,0.6-0.8,1.1l0,0
		C140.4,37.9,140.9,38.3,141.6,38.2z"/>
	<path class="st15" d="M123.3,47.9c0,0,5.3-1.7,4.3-7.9l12.7-2.6"/>
	<path class="st15" d="M122.4,46.3c0,0,6.4-3.5,5.2-6.4c-2.6-6.3-6.5-5.5-6.5-5.5"/>
	<path class="st15" d="M121.4,36.5c0,0,4.5-0.6,6.2,3.4"/>
	<path class="st15" d="M127.5,39.6c-0.8,2.6-5,4.6-5,4.6"/>
	<path class="st15" d="M121.4,39.9l5.6,0c-1.5-1.5-5.5-1.4-5.5-1.4"/>
	<path class="st15" d="M122,42.6c0,0,4.2-1.8,5.1-2.8"/>
</g>
<g>
	<path class="st15" d="M144.4,43.4l3.6-3.7c0.4-0.4,1-0.4,1.4-0.1l0.1,0.1c0.5,0.4,0.5,1.1,0.1,1.6l-3.7,3.6c-0.4,0.4-1,0.4-1.4,0.1
		l0,0C144,44.6,144,43.9,144.4,43.4z"/>
	<path class="st15" d="M126.4,53.6c0,0,4.3-3.6,9,0.6l9.1-9.3"/>
	<path class="st15" d="M127.3,55.2c0,0,6.4-3.5,8.2-0.9c3.9,5.6,1.1,8.4,1.1,8.4"/>
	<path class="st15" d="M135,61.3c0,0,2.9-3.5,0.4-7"/>
	<path class="st15" d="M135.6,54.5c-2.6-0.8-6.5,1.7-6.5,1.7"/>
	<path class="st15" d="M132.2,59.5l3-4.7c0.4,2-1.8,5.4-1.8,5.4"/>
	<path class="st15" d="M130.1,57.5c0,0,3.8-2.6,5-2.8"/>
</g>
<g>
	<path class="st15" d="M142.5,40l3.1-1.7c0.3-0.2,0.8-0.1,1,0.2l0,0.1c0.2,0.4,0.1,0.9-0.3,1.1l-3.2,1.7c-0.3,0.2-0.7,0.1-0.9-0.2v0
		C142,40.7,142.2,40.2,142.5,40z"/>
	<path class="st15" d="M128.5,43.2c0,0,3.6-1.5,5.9,2.2l7.9-4.4"/>
	<path class="st15" d="M128.8,44.5c0,0,5-1.1,5.6,1c1.5,4.5-0.9,5.9-0.9,5.9"/>
	<path class="st15" d="M132.7,50.1c0,0,2.6-1.7,1.7-4.6"/>
	<path class="st15" d="M134.5,45.7c-1.6-1-4.7-0.1-4.7-0.1"/>
	<path class="st15" d="M131.2,48.3l2.9-2.5c-0.1,1.4-2.3,3.3-2.3,3.3"/>
	<path class="st15" d="M130.2,46.6c0,0,3.1-1,3.9-0.9"/>
</g>
<g>
	<path class="st15" d="M143,38.3l3.3,1.4c0.4,0.2,0.5,0.6,0.4,0.9l0,0.1c-0.1,0.4-0.6,0.6-1,0.4l-3.2-1.5c-0.3-0.2-0.5-0.5-0.4-0.9
		l0,0C142.2,38.3,142.6,38.1,143,38.3z"/>
	<path class="st15" d="M131.9,29.1c0,0,3.4,1.9,1.8,6l8.3,3.6"/>
	<path class="st15" d="M131.1,30c0,0,3.8,3.3,2.6,5.1c-2.7,3.9-5.2,2.8-5.2,2.8"/>
	<path class="st15" d="M129,36.6c0,0,3,1.1,4.7-1.5"/>
	<path class="st15" d="M133.6,35.3c-0.1-1.9-2.7-3.8-2.7-3.8"/>
	<path class="st15" d="M129.5,34.2l3.8,0.8c-1.2,0.8-4,0.2-4,0.2"/>
	<path class="st15" d="M130.3,32.4c0,0,2.6,1.8,3.1,2.6"/>
</g>
<g>
	<path class="st15" d="M150,38.5l-5,0.8c-0.5,0.1-1.1-0.3-1.2-0.8l0-0.1c-0.1-0.6,0.3-1.2,0.9-1.3l5.1-0.7c0.5-0.1,1,0.3,1.2,0.8v0
		C151,37.8,150.6,38.4,150,38.5z"/>
	<path class="st15" d="M170.5,41.1c0,0-5.6,0.3-6.8-5.9l-12.8,2"/>
	<path class="st15" d="M170.7,39.3c0,0-7.2-1-7.1-4.1c0.2-6.8,4.1-7.4,4.1-7.4"/>
	<path class="st15" d="M168.2,29.7c0,0-4.4,1-4.5,5.4"/>
	<path class="st15" d="M163.7,34.8c1.7,2.2,6.3,2.5,6.3,2.5"/>
	<path class="st15" d="M169.4,32.9l-5.2,2c0.9-1.9,4.7-3.3,4.7-3.3"/>
	<path class="st15" d="M169.9,35.7c0,0-4.6-0.2-5.7-0.8"/>
</g>
<g>
	<path class="st15" d="M150,40.2l-4.1-3c-0.4-0.3-1.1-0.2-1.4,0.2l-0.1,0.1c-0.4,0.5-0.3,1.2,0.2,1.5l4.2,2.9c0.4,0.3,1,0.2,1.4-0.2
		l0,0C150.5,41.3,150.5,40.6,150,40.2z"/>
	<path class="st15" d="M169.4,47.2c0,0-4.8-2.8-8.8,2.2l-10.5-7.6"/>
	<path class="st15" d="M168.8,48.9c0,0-6.9-2.3-8.2,0.5c-2.9,6.2,0.3,8.5,0.3,8.5"/>
	<path class="st15" d="M162.3,56.2c0,0-3.5-2.9-1.6-6.9"/>
	<path class="st15" d="M160.5,49.6c2.5-1.2,6.7,0.6,6.7,0.6"/>
	<path class="st15" d="M164.8,53.9l-3.8-4.1c-0.1,2.1,2.7,5,2.7,5"/>
	<path class="st15" d="M166.4,51.7c0,0-4.2-1.9-5.4-1.9"/>
</g>
<g>
	<path class="st15" d="M147,44l-2.1-4.7c-0.2-0.5-0.8-0.8-1.3-0.6l-0.1,0c-0.6,0.2-0.9,0.9-0.6,1.4l2.2,4.6c0.2,0.5,0.8,0.7,1.3,0.6
		l0,0C146.9,45.2,147.2,44.6,147,44z"/>
	<path class="st15" d="M160.2,59.9c0,0-2.8-4.9-8.7-2.6l-5.2-11.9"/>
	<path class="st15" d="M158.8,61c0,0-4.7-5.5-7.3-3.7c-5.6,3.9-4,7.5-4,7.5"/>
	<path class="st15" d="M149.4,64c0,0-1.5-4.3,2.1-6.7"/>
	<path class="st15" d="M151.2,57.5c2.7,0.2,5.5,3.9,5.5,3.9"/>
	<path class="st15" d="M152.7,63.3l-1.2-5.5c-1.1,1.7-0.2,5.7-0.2,5.7"/>
	<path class="st15" d="M155.3,62.3c0,0-2.6-3.8-3.7-4.4"/>
</g>
<g>
	<path class="st15" d="M148.9,39.9l-3.5-0.5c-0.4-0.1-0.7,0.2-0.8,0.6l0,0.1c-0.1,0.4,0.2,0.8,0.6,0.9l3.5,0.4
		c0.4,0,0.7-0.2,0.8-0.6v0C149.7,40.3,149.4,39.9,148.9,39.9z"/>
	<path class="st15" d="M163.2,37.8c0,0-3.9-0.1-4.7,4.2l-9-1.3"/>
	<path class="st15" d="M163.4,39.1c0,0-5,0.8-4.9,3c0.2,4.8,3,5.1,3,5.1"/>
	<path class="st15" d="M161.7,45.8c0,0-3.1-0.7-3.2-3.7"/>
	<path class="st15" d="M158.5,42.3c1.1-1.5,4.3-1.8,4.3-1.8"/>
	<path class="st15" d="M162.5,43.5l-3.7-1.3c0.6,1.3,3.3,2.2,3.3,2.2"/>
	<path class="st15" d="M162.9,41.6c0,0-3.2,0.2-4,0.6"/>
</g>
<g>
	<path class="st15" d="M147.1,42.4l-2.3-2.7c-0.3-0.3-0.7-0.3-1-0.1l-0.1,0c-0.3,0.3-0.4,0.8-0.1,1.1l2.4,2.6c0.2,0.3,0.7,0.3,1,0.1
		h0C147.4,43.2,147.4,42.7,147.1,42.4z"/>
	<path class="st15" d="M159.2,50.2c0,0-2.8-2.7-6.3,0.1l-5.9-6.8"/>
	<path class="st15" d="M158.6,51.3c0,0-4.3-2.7-5.6-1c-2.9,3.7-1.1,5.8-1.1,5.8"/>
	<path class="st15" d="M152.9,55.2c0,0-1.9-2.5,0-4.9"/>
	<path class="st15" d="M152.8,50.5c1.9-0.4,4.5,1.5,4.5,1.5"/>
	<path class="st15" d="M155,54.1l-1.9-3.4c-0.4,1.4,1,3.9,1,3.9"/>
	<path class="st15" d="M156.5,52.8c0,0-2.5-2-3.4-2.1"/>
</g>
<g>
	<path class="st16" d="M159.5,24l-3.4,1.5c-0.4,0.2-0.8,0-1-0.4l0-0.1c-0.2-0.4,0-0.9,0.4-1.1l3.5-1.4c0.4-0.1,0.8,0,1,0.3v0
		C160.1,23.3,160,23.8,159.5,24z"/>
	<path class="st15" d="M174.5,22c0,0-3.9,1.2-5.9-2.9l-8.7,3.8"/>
	<path class="st15" d="M174.4,20.7c0,0-5.3,0.6-5.8-1.6c-1.1-4.9,1.6-6,1.6-6"/>
	<path class="st15" d="M170.8,14.4c0,0-2.9,1.5-2.2,4.7"/>
	<path class="st15" d="M168.6,18.8c1.6,1.2,4.9,0.6,4.9,0.6"/>
	<path class="st15" d="M172.3,16.4l-3.3,2.4c0.3-1.5,2.7-3.2,2.7-3.2"/>
	<path class="st15" d="M173.1,18.3c0,0-3.3,0.7-4.2,0.5"/>
</g>
<path class="st14" d="M144,34.4c0.5-0.5,1.2-0.8,1.9-0.8c0.8,0,1.5,0.3,2,0.8c0.5,0.5,0.8,1.2,0.8,2v41c0,2.1,0.4,3.7,1.3,5
	c0.8,1.3,1.9,1.9,3.2,1.9h1.8c0.7,0,1.3,0.3,1.7,0.8s0.6,1.2,0.6,2c0,0.8-0.3,1.5-0.9,2c-0.6,0.5-1.4,0.8-2.3,0.8h-0.9
	c-2.9,0-5.3-1.2-7.2-3.5c-1.8-2.3-2.8-5.3-2.8-9v-41C143.3,35.5,143.5,34.9,144,34.4z"/>
<ellipse class="st19" cx="146.2" cy="39.1" rx="7.5" ry="5.2"/>
</svg>
